<svg width="113" height="22" viewBox="0 0 113 22" fill="none" xmlns="http://www.w3.org/2000/svg">
<path d="M20.6191 20.7439V0.256099H27.7172C30.4632 0.256099 32.4431 0.644513 33.6568 1.42134C34.8827 2.18963 35.5385 3.46585 35.6244 5.25C35.6611 5.96707 35.6795 6.63293 35.6795 7.24756C35.6795 7.8622 35.6611 8.52805 35.6244 9.24512C35.5385 11.0207 34.8827 12.297 33.6568 13.0738C32.4431 13.8506 30.4632 14.239 27.7172 14.239H26.1358V20.7439H20.6191ZM26.1358 10.8585H27.7172C28.4895 10.8585 29.0718 10.7348 29.4641 10.4872C29.8564 10.2396 30.071 9.8939 30.1077 9.45C30.1445 9.03171 30.169 8.5622 30.1813 8.04146C30.1935 7.5122 30.1935 6.9872 30.1813 6.46646C30.169 5.9372 30.1445 5.46341 30.1077 5.04512C30.071 4.59268 29.8564 4.24695 29.4641 4.00793C29.0718 3.76037 28.4895 3.63659 27.7172 3.63659H26.1358V10.8585Z" fill="white"/>
<path d="M37.9304 20.7439V0.256099H45.0285C47.7745 0.256099 49.7544 0.644513 50.968 1.42134C52.1939 2.18963 52.8498 3.46585 52.9356 5.25C52.9601 5.72805 52.9724 6.14634 52.9724 6.50488C52.9847 6.86341 52.9847 7.22195 52.9724 7.58049C52.9724 7.93902 52.9601 8.35732 52.9356 8.83536C52.8866 9.94512 52.6169 10.8543 52.1265 11.5628C51.6484 12.2713 50.9006 12.8134 49.8831 13.189L53.3402 20.7439H47.4926L44.6975 13.8293H43.447V20.7439H37.9304ZM43.447 10.4488H45.0285C45.8008 10.4488 46.3831 10.325 46.7754 10.0774C47.1677 9.82988 47.3822 9.48415 47.419 9.04024C47.4558 8.62195 47.4803 8.18659 47.4926 7.73415C47.5048 7.27317 47.5048 6.81646 47.4926 6.36403C47.4803 5.90305 47.4558 5.46341 47.419 5.04512C47.3822 4.59268 47.1677 4.24695 46.7754 4.00793C46.3831 3.76037 45.8008 3.63659 45.0285 3.63659H43.447V10.4488Z" fill="white"/>
<path d="M63.1069 21C60.4099 21 58.4545 20.603 57.2409 19.8091C56.0395 19.0152 55.4081 17.6963 55.3468 15.8524C55.3223 15.0159 55.3039 14.1451 55.2917 13.2402C55.2794 12.3354 55.2733 11.4177 55.2733 10.4872C55.2733 9.55671 55.2794 8.63902 55.2917 7.73415C55.3039 6.82927 55.3223 5.95854 55.3468 5.12195C55.4081 3.28659 56.0395 1.97622 57.2409 1.19085C58.4545 0.396951 60.4099 0 63.1069 0C65.8162 0 67.7592 0.396951 68.9361 1.19085C70.113 1.97622 70.7444 3.28659 70.8302 5.12195C70.8792 5.97561 70.916 6.85488 70.9405 7.75976C70.965 8.66463 70.9773 9.58232 70.9773 10.5128C70.9773 11.4348 70.965 12.3482 70.9405 13.253C70.916 14.1494 70.8792 15.0159 70.8302 15.8524C70.7444 17.6963 70.113 19.0152 68.9361 19.8091C67.7592 20.603 65.8162 21 63.1069 21ZM63.1069 17.8756C63.8302 17.8756 64.3757 17.7646 64.7435 17.5427C65.1113 17.3122 65.3013 16.9878 65.3135 16.5695C65.3748 15.6988 65.4177 14.7427 65.4423 13.7012C65.4668 12.6598 65.479 11.5884 65.479 10.4872C65.479 9.38598 65.4668 8.31463 65.4423 7.27317C65.4177 6.23171 65.3748 5.27561 65.3135 4.40488C65.3013 3.99512 65.1051 3.67927 64.7251 3.45732C64.3451 3.23537 63.8057 3.12439 63.1069 3.12439C62.4081 3.12439 61.8626 3.23537 61.4703 3.45732C61.0903 3.67927 60.888 3.99512 60.8635 4.40488C60.8144 5.27561 60.7715 6.23171 60.7347 7.27317C60.7102 8.31463 60.698 9.38598 60.698 10.4872C60.698 11.5884 60.7102 12.6598 60.7347 13.7012C60.7715 14.7427 60.8144 15.6988 60.8635 16.5695C60.888 16.9878 61.0903 17.3122 61.4703 17.5427C61.8626 17.7646 62.4081 17.8756 63.1069 17.8756Z" fill="white"/>
<path d="M76.7827 20.7439V3.63659H72.0567V0.256099H87.0252V3.63659H82.2993V20.7439H76.7827Z" fill="white"/>
<path d="M88.7149 20.7439V0.256099H94.2316V20.7439H88.7149Z" fill="white"/>
<path d="M96.1428 20.7439L100.74 10.0902L96.2532 0.256099H101.659L103.572 5.04512L104.05 8.55366H104.786L105.264 5.04512L107.103 0.256099H112.509L108.243 10.2183L112.619 20.7439H107.213L105.264 15.6988L104.786 11.9341H104.05L103.572 15.6988L101.549 20.7439H96.1428Z" fill="white"/>
<path d="M7.66036 0H5.32292H2.7942C1.2512 0 0.000197826 1.22497 0.000197826 2.73587V15.5561C4.12597 13.0054 5.60335 9.75466 6.05832 8.42578L4.7419 9.36229L5.43621 7.26956L3.61835 5.97623H5.86544L6.55975 3.88351L7.25406 5.97623H9.50115L7.68329 7.26956L8.37761 9.36229L6.95368 8.34942C6.50989 10.2431 4.69403 16.7453 0 20.364C0 20.8067 0.366602 21.1657 0.818771 21.1657H4.50394C4.95611 21.1657 5.32272 20.8067 5.32272 20.364V16.2684C5.32272 15.9194 5.61173 15.6366 5.96796 15.6366H7.66016C12.0698 15.6366 15.6442 12.1362 15.6442 7.81857C15.6444 3.50031 12.07 0 7.66036 0Z" fill="#BFF747"/>
</svg>
